<mxfile host="65bd71144e">
    <diagram id="cR0HkQJvfeCeRVCD8xl1" name="Page-1">
        <mxGraphModel dx="518" dy="370" grid="1" gridSize="10" guides="1" tooltips="1" connect="1" arrows="1" fold="1" page="1" pageScale="1" pageWidth="2200" pageHeight="2000" background="#FFFFFF" math="0" shadow="1">
            <root>
                <mxCell id="0"/>
                <mxCell id="1" parent="0"/>
                <mxCell id="2" value="&lt;font color=&quot;#000000&quot;&gt;START&lt;/font&gt;" style="rounded=1;whiteSpace=wrap;html=1;fillColor=#d5e8d4;strokeColor=#82b366;shadow=0;arcSize=50;" vertex="1" parent="1">
                    <mxGeometry x="400" y="160" width="80" height="40" as="geometry"/>
                </mxCell>
            </root>
        </mxGraphModel>
    </diagram>
</mxfile>